<svg xmlns="http://www.w3.org/2000/svg" width="470" height="434" viewBox="0 0 470 434" fill="none"><path d="M465.299 108.802C482.146 169.992 435.571 248.661 384.83 286.849C334.09 325.037 279.067 323.13 236.162 349.353C193.141 375.963 161.853 430.585 137.556 432.925C112.99 434.762 94.7612 383.695 66.2891 335.852C37.817 288.008 -1.43578 242.381 0.54952 198.281C2.65183 153.795 45.6064 110.718 100.521 71.2645C155.822 31.9278 222.463 -3.13039 295.784 0.945368C369.222 4.63486 448.72 48.114 465.299 108.802Z" stroke="white" stroke-opacity="0.5" stroke-width="0.5"></path><path d="M444.219 117.889C459.587 173.827 417.024 245.765 370.67 280.694C324.315 315.623 274.061 313.896 234.867 337.884C195.566 362.225 166.972 412.174 144.78 414.32C122.343 416.007 105.71 369.325 79.7197 325.592C53.7298 281.86 17.8929 240.157 19.7196 199.838C21.6534 159.166 60.8985 119.769 111.066 83.682C161.587 47.7013 222.463 15.6288 289.428 19.3326C356.501 22.6832 429.096 62.4098 444.219 117.889Z" stroke="white" stroke-opacity="0.5" stroke-width="0.5"></path><path d="M418.531 129.448C432.162 178.856 394.543 242.357 353.548 273.175C312.552 303.993 268.086 302.44 233.42 323.6C198.659 345.072 173.388 389.164 153.754 391.047C133.902 392.523 119.157 351.289 96.1347 312.655C73.1128 274.021 41.3792 237.173 42.9721 201.569C44.6595 165.653 79.3616 130.886 123.73 99.0473C168.411 67.3028 222.257 39.0156 281.512 42.3253C340.861 45.3232 405.118 80.4471 418.531 129.448Z" stroke="white" stroke-opacity="0.5" stroke-width="0.5"></path><path d="M394.157 139.858C406.065 183.219 373.075 238.984 337.147 266.062C301.22 293.14 262.272 291.804 231.895 310.4C201.435 329.27 179.272 367.99 162.073 369.655C144.684 370.963 131.795 334.778 111.655 300.88C91.5142 266.981 63.742 234.657 65.1597 203.403C66.6604 171.875 97.0779 141.335 135.96 113.359C175.116 85.4654 222.298 60.6011 274.197 63.4689C326.179 66.0629 382.439 96.8538 394.157 139.858Z" stroke="white" stroke-opacity="0.5" stroke-width="0.5"></path><path d="M369.568 150.977C379.819 188.071 351.568 235.736 320.772 258.863C289.977 281.99 256.566 280.815 230.524 296.693C204.412 312.806 185.434 345.901 170.681 347.311C155.766 348.415 144.679 317.457 127.373 288.448C110.068 259.439 86.2169 231.77 87.4064 205.042C88.6667 178.079 114.733 151.986 148.063 128.093C181.627 104.271 222.078 83.0458 266.6 85.5428C311.193 87.8057 359.479 114.188 369.568 150.977Z" stroke="white" stroke-opacity="0.5" stroke-width="0.5"></path><path d="M345.193 161.387C353.722 192.434 330.099 232.362 304.371 251.749C278.644 271.137 250.753 270.179 229 283.493C207.188 297.004 191.318 324.727 179.001 325.919C166.548 326.855 157.317 300.945 142.893 276.672C128.469 252.4 108.58 229.254 109.594 206.875C110.668 184.301 132.449 162.434 160.293 142.404C188.332 122.433 222.119 104.631 259.285 106.686C296.51 108.545 336.8 130.594 345.193 161.387Z" stroke="white" stroke-opacity="0.5" stroke-width="0.5"></path><path d="M321.917 171.356C328.804 196.622 309.604 229.148 288.717 244.955C267.831 260.763 245.209 260.01 227.552 270.87C209.846 281.89 196.947 304.474 186.956 305.456C176.854 306.23 169.392 285.147 157.716 265.402C146.041 245.657 129.931 226.835 130.776 208.617C131.669 190.239 149.357 172.417 171.961 156.084C194.724 139.799 222.146 125.275 252.29 126.911C282.482 128.388 315.139 146.297 321.917 171.356Z" stroke="white" stroke-opacity="0.5" stroke-width="0.5"></path><path d="M300.837 180.443C306.245 200.457 291.058 226.252 274.557 238.8C258.056 251.349 240.203 250.777 226.256 259.401C212.271 268.152 202.066 286.062 194.18 286.851C186.207 287.475 180.34 270.777 171.147 255.143C161.954 239.509 149.26 224.611 149.946 210.174C150.67 195.61 164.65 181.469 182.506 168.502C200.488 155.573 222.146 144.034 245.934 145.298C269.76 146.436 295.515 160.593 300.837 180.443Z" stroke="white" stroke-opacity="0.5" stroke-width="0.5"></path><path d="M280.855 189.089C284.866 204.116 273.485 223.515 261.142 232.965C248.8 242.415 235.466 242.01 225.037 248.509C214.579 255.103 206.931 268.571 201.04 269.175C195.084 269.656 190.726 257.12 183.881 245.389C177.037 233.658 167.577 222.485 168.11 211.639C168.672 200.697 179.134 190.054 192.489 180.288C205.939 170.55 222.132 161.851 239.897 162.767C257.692 163.588 276.908 174.185 280.855 189.089Z" stroke="white" stroke-opacity="0.5" stroke-width="0.5"></path><path d="M263.069 196.853C265.846 207.422 257.861 221.095 249.222 227.768C240.582 234.44 231.268 234.179 223.97 238.771C216.652 243.43 211.286 252.923 207.169 253.358C203.007 253.706 199.984 244.891 195.223 236.646C190.461 228.402 183.872 220.554 184.263 212.919C184.674 205.217 192.001 197.708 201.349 190.812C210.762 183.935 222.09 177.784 234.5 178.398C246.931 178.945 260.338 186.37 263.069 196.853Z" stroke="white" stroke-opacity="0.5" stroke-width="0.5"></path></svg>